<?xml version="1.0" encoding="UTF-8" standalone="no"?>
<!-- Created with Inkscape (http://www.inkscape.org/) -->

<svg
   version="1.1"
   id="svg1"
   width="600"
   height="400"
   viewBox="0 0 600 400"
   xml:space="preserve"
   xmlns:xlink="http://www.w3.org/1999/xlink"
   xmlns="http://www.w3.org/2000/svg"
   xmlns:svg="http://www.w3.org/2000/svg"><defs
     id="defs1" /><g
     id="g1"><g
       id="g5"
       transform="translate(309.67346,-147.49366)"><g
         id="g3"
         transform="matrix(200,0,0,200,-309.67346,147.49366)"><path
           fill="#009246"
           d="M 0,0 H 3 V 2 H 0 Z"
           id="path1-0" /><path
           fill="#ffffff"
           d="M 1,0 H 3 V 2 H 1 Z"
           id="path2-5" /><path
           fill="#ce2b37"
           d="M 2,0 H 3 V 2 H 2 Z"
           id="path3-2" /></g><g
         id="g4"
         transform="translate(-29.530695,112.38239)"><g
           fill="#ffff00"
           fill-rule="evenodd"
           stroke="#000000"
           stroke-width="0.573"
           stroke-linecap="round"
           stroke-linejoin="round"
           id="g19"
           transform="translate(-276.89599,34.939275)"><path
             d="M 318.24,262.04 C 288.03,261.13 149.5,174.66 148.55,160.89 l 7.65,-12.757 c 13.74,19.966 155.36,104.06 169.27,101.08 l -7.23,12.823"
             id="path3" /><path
             d="m 154.59,146.4 c -2.71,7.294 36.149,31.318 82.903,59.754 46.752,28.434 87.065,46.006 90.053,43.486 0.183,-0.325 1.47,-2.54 1.352,-2.523 -0.56,0.844 -1.923,1.11 -4.05,0.497 -12.632,-3.643 -45.576,-18.765 -86.375,-43.506 -40.798,-24.743 -76.294,-47.544 -81.81,-57.232 -0.384,-0.671 -0.658,-1.896 -0.602,-2.848 l -0.134,-0.002 -1.175,2.053 -0.161,0.322 h -0.001 z m 164.36,116.04 c -0.512,0.93 -1.467,0.96 -3.282,0.761 -11.3,-1.25 -45.589,-17.925 -86.162,-42.213 -47.21,-28.26 -86.2,-54.01 -81.97,-60.74 l 1.151,-2.034 0.227,0.07 c -3.804,11.405 76.948,57.578 81.702,60.522 46.724,28.947 86.115,45.851 89.601,41.458 l -1.268,2.181 v -0.002 z"
             id="path4" /><path
             d="m 240.17,169.23 c 30.237,-0.239 67.55,-4.132 89.023,-12.69 l -4.627,-7.517 c -12.692,7.025 -50.21,11.644 -84.652,12.335 -40.736,-0.375 -69.49,-4.168 -83.897,-13.835 l -4.367,8.005 c 26.484,11.207 53.623,13.587 88.52,13.703"
             id="path5" /><path
             d="m 330.44,156.71 c -0.739,1.182 -14.743,6.011 -35.373,9.575 -13.988,2.133 -32.234,3.956 -55.004,3.978 -21.633,0.02 -39.305,-1.52 -52.684,-3.333 -21.656,-3.396 -32.833,-8.12 -36.965,-9.79 0.395,-0.785 0.65,-1.337 1.03,-2.07 11.895,4.736 23.124,7.591 36.28,9.615 13.29,1.8 30.75,3.362 52.275,3.342 22.664,-0.023 40.71,-1.984 54.616,-4.053 21.155,-3.412 32.711,-7.804 34.334,-9.843 l 1.494,2.579 h -0.002 z m -4.06,-7.623 c -2.293,1.842 -13.718,5.894 -33.82,9.104 -13.414,1.922 -30.471,3.643 -52.264,3.664 -20.704,0.02 -37.62,-1.375 -50.485,-3.249 -20.414,-2.666 -31.28,-7.475 -35.196,-8.877 0.39,-0.674 0.786,-1.343 1.194,-2.014 3.048,1.535 13.533,5.791 34.226,8.723 12.72,1.803 29.66,3.147 50.262,3.126 21.69,-0.022 38.553,-1.776 51.883,-3.688 20.205,-2.78 31.077,-7.948 32.728,-9.241 l 1.473,2.45 v 0.003 z m -185.5,56.573 c 18.598,10.003 59.905,15.044 98.994,15.391 35.591,0.056 81.958,-5.502 99.297,-14.69 l -0.477,-10.012 c -5.425,8.477 -55.113,16.609 -99.206,16.276 -44.093,-0.333 -85.038,-7.143 -98.687,-15.959 l 0.08,8.991"
             id="path6" /><path
             d="m 340.12,204.22 v 2.387 c -2.605,3.116 -18.945,7.826 -39.436,11.142 -15.595,2.391 -35.927,4.195 -61.262,4.195 -24.07,0 -43.263,-1.716 -58.148,-4.001 -23.53,-3.427 -38.58,-9.427 -41.6,-11.217 l 0.013,-2.786 c 9.075,6.034 33.661,10.447 41.917,11.798 14.788,2.27 33.868,3.974 57.817,3.974 25.216,0 45.434,-1.792 60.931,-4.167 14.701,-2.123 35.644,-7.646 39.767,-11.324 h 10e-4 z m 0.01,-8.492 v 2.387 c -2.605,3.114 -18.945,7.824 -39.436,11.14 -15.595,2.391 -35.927,4.195 -61.262,4.195 -24.07,0 -43.263,-1.715 -58.148,-4.002 -23.53,-3.424 -38.58,-9.424 -41.6,-11.216 l 0.013,-2.785 c 9.075,6.033 33.661,10.447 41.917,11.796 14.788,2.272 33.868,3.976 57.817,3.976 25.216,0 45.434,-1.792 60.931,-4.17 14.701,-2.123 35.644,-7.646 39.767,-11.323 z M 239.79,260.32 c -42.772,-0.255 -79.421,-11.659 -87.16,-13.544 l 5.643,8.834 c 13.67,5.75 49.424,14.32 81.927,13.371 32.504,-0.948 60.91,-3.466 80.928,-13.21 l 5.787,-9.156 c -13.642,6.425 -60.068,13.639 -87.125,13.705"
             id="path7" /><path
             stroke-width="0.55"
             d="m 323.3,253.72 a 134.08,134.08 0 0 1 -2.596,3.83 c -9.442,3.329 -24.32,6.824 -30.597,7.843 -12.824,2.643 -32.665,4.594 -50.274,4.603 -37.89,-0.554 -68.905,-7.972 -83.496,-14.299 l -1.178,-2.024 0.193,-0.304 1.996,0.774 c 25.948,9.284 55.091,12.987 82.698,13.652 17.538,0.062 35.095,-2.01 49.292,-4.549 21.771,-4.362 30.574,-7.65 33.275,-9.14 z m 5.017,-8.275 0.066,0.077 a 269.275,269.275 0 0 1 -1.963,3.263 c -5.035,1.8 -18.702,5.798 -38.659,8.589 -13.149,1.791 -21.322,3.526 -47.479,4.034 -49.015,-1.247 -80.75,-10.831 -88.289,-13.195 l -1.117,-2.143 c 28.406,7.415 57.422,12.592 89.408,13.12 23.93,-0.509 34.112,-2.271 47.152,-4.05 23.27,-3.618 34.996,-7.449 38.515,-8.555 a 2.667,2.667 0 0 0 -0.154,-0.2 l 2.523,-0.942 -0.002,0.002 z"
             id="path8" /><path
             d="m 328.83,197.76 c 0.139,28.137 -14.26,53.386 -25.858,64.525 -16.408,15.759 -38.163,25.896 -63.569,26.363 -28.37,0.521 -55.12,-17.974 -62.295,-26.099 -14.028,-15.885 -25.449,-36.057 -25.815,-63.243 1.738,-30.709 13.793,-52.1 31.268,-66.769 17.475,-14.669 40.743,-21.813 60.121,-21.302 22.358,0.59 48.475,11.558 66.521,33.332 11.823,14.266 16.943,29.748 19.627,53.193 z m -89.186,-96.342 c 54.485,0 99.296,44.338 99.296,98.703 0,54.364 -44.811,98.704 -99.296,98.704 -54.485,0 -98.924,-44.339 -98.924,-98.704 0,-54.365 44.439,-98.703 98.924,-98.703"
             id="path9" /><path
             d="m 239.91,101.08 c 54.534,0 99.011,44.483 99.011,99.022 0,54.538 -44.478,99.02 -99.011,99.02 -54.534,0 -99.011,-44.481 -99.011,-99.02 0,-54.539 44.478,-99.022 99.011,-99.022 z m -96.832,99.022 c 0,53.26 43.736,96.842 96.832,96.842 53.097,0 96.833,-43.582 96.833,-96.842 0,-53.262 -43.737,-96.844 -96.833,-96.844 -53.096,0 -96.832,43.584 -96.832,96.844 z"
             id="path10" /><path
             d="m 239.99,109.31 c 49.731,0 90.693,40.821 90.693,90.704 0,49.884 -40.963,90.703 -90.693,90.703 -49.73,0 -90.693,-40.819 -90.693,-90.703 0,-49.883 40.964,-90.704 90.693,-90.704 z m -88.515,90.703 c 0,48.685 39.979,88.524 88.515,88.524 48.536,0 88.515,-39.839 88.515,-88.524 0,-48.686 -39.978,-88.525 -88.515,-88.525 -48.536,0 -88.515,39.84 -88.515,88.525 z"
             id="path11" /><path
             d="m 243.98,100.68 h -8.485 l 0.01,198.96 h 8.514 z"
             id="path12" /><path
             d="m 243.13,99.546 h 2.16 l 0.018,201.25 h -2.161 l -0.016,-201.25 z m -8.421,0.002 h 2.176 l 0.003,201.25 H 234.71 V 99.548 Z"
             id="path13" /><path
             d="M 338.99,203.935 V 196.58 L 333,191 l -34,-9 -49,-5 -59,3 -42,10 -8.48,6.28 v 7.357 L 162,194 l 51,-8 h 49 l 36,4 25,6 z"
             id="path14" /><path
             d="m 239.95,184.77 c 23.383,-0.043 46.07,2.215 64.065,5.72 18.569,3.712 31.637,8.355 36.105,13.57 l -0.005,2.583 c -5.388,-6.49 -22.973,-11.248 -36.518,-13.968 -17.858,-3.474 -40.393,-5.717 -63.647,-5.674 -24.538,0.046 -47.387,2.37 -64.984,5.803 -14.12,2.802 -32.951,8.368 -35.302,13.858 v -2.689 c 1.291,-3.8 15.313,-9.479 34.984,-13.417 17.729,-3.457 40.62,-5.741 65.302,-5.786 z m 0.01,-8.492 c 23.383,-0.042 46.07,2.217 64.065,5.72 18.569,3.713 31.637,8.355 36.105,13.57 l -0.005,2.583 c -5.388,-6.489 -22.973,-11.247 -36.518,-13.966 -17.858,-3.476 -40.393,-5.719 -63.647,-5.674 -24.538,0.044 -47.276,2.37 -64.875,5.801 -13.626,2.584 -33.226,8.37 -35.412,13.86 v -2.69 c 1.291,-3.76 15.597,-9.642 34.985,-13.417 17.729,-3.458 40.62,-5.74 65.302,-5.787 z m -0.48,-43.318 c 36.849,-0.184 68.99,5.152 83.695,12.685 l 5.364,9.279 c -12.781,-6.888 -47.456,-14.05 -89.005,-12.979 -33.854,0.208 -70.027,3.727 -88.176,13.41 l 6.403,-10.709 c 14.895,-7.724 50.022,-11.643 81.72,-11.684"
             id="path15" /><path
             d="m 239.97,140.62 c 21.017,-0.056 41.325,1.13 57.476,4.044 15.041,2.799 29.385,7 31.436,9.26 l 1.59,2.81 c -4.988,-3.257 -17.4,-6.884 -33.339,-9.906 -16.006,-3.008 -36.3,-4.005 -57.2,-3.95 -23.722,-0.081 -42.152,1.171 -57.969,3.929 -16.728,3.13 -28.334,7.601 -31.197,9.726 l 1.558,-2.97 c 5.564,-2.838 14.39,-6.26 29.223,-8.93 16.357,-2.988 34.983,-3.884 58.423,-4.013 v 0 z m -0.009,-8.484 c 20.113,-0.053 39.972,1.068 55.452,3.85 12.209,2.377 24.283,6.088 28.704,9.39 l 2.326,3.695 c -3.954,-4.395 -18.836,-8.56 -31.974,-10.892 -15.361,-2.65 -34.395,-3.698 -54.508,-3.866 -21.108,0.06 -40.615,1.352 -55.752,4.108 -14.441,2.749 -23.76,6.002 -27.703,8.543 l 2.045,-3.087 c 5.441,-2.864 14.232,-5.495 25.303,-7.646 15.249,-2.777 34.876,-4.036 56.108,-4.095 z M 289.15,241.26 c -18.218,-3.4 -36.469,-3.895 -49.217,-3.745 -61.407,0.72 -81.244,12.61 -83.665,16.21 l -4.59,-7.482 c 15.635,-11.332 49.074,-17.687 88.588,-17.037 20.518,0.336 38.224,1.698 53.119,4.583 l -4.236,7.473"
             id="path16" /><path
             stroke-width="0.55"
             d="m 239.58,236.46 c 17.082,0.255 33.849,0.96 50.033,3.978 l -1.172,2.07 c -15.031,-2.775 -31.055,-3.837 -48.803,-3.75 -22.663,-0.178 -45.585,1.939 -65.541,7.666 -6.297,1.753 -16.721,5.8 -17.784,9.146 l -1.166,-1.923 c 0.336,-1.977 6.636,-6.08 18.414,-9.39 22.858,-6.545 44.24,-7.649 66.02,-7.799 v 0.002 z m 0.775,-8.596 c 17.698,0.33 35.975,1.149 53.74,4.668 l -1.22,2.153 c -16.042,-3.184 -31.37,-4.246 -52.415,-4.57 -22.735,0.042 -46.851,1.663 -68.778,8.037 -7.08,2.063 -19.297,6.52 -19.704,10.05 l -1.166,-2.065 c 0.265,-3.206 10.842,-7.388 20.358,-10.156 22.096,-6.424 46.275,-8.076 69.186,-8.117 z"
             id="path17" /><path
             d="M 327.58,247.38 320.201,258.829 299,240 244,203 182,169 149.81,157.99 156.67,145.27 159,144 l 20,5 66,34 38,24 32,23 13,15 z"
             id="path18" /><path
             d="m 148.65,158.29 c 5.646,-3.83 47.139,14.655 90.555,40.834 43.301,26.254 84.677,55.921 80.942,61.473 l -1.228,1.932 -0.564,0.445 c 0.12,-0.087 0.743,-0.848 -0.06,-2.906 -1.846,-6.07 -31.196,-29.491 -79.895,-58.895 -47.475,-28.31 -87.04,-45.371 -90.997,-40.494 l 1.247,-2.39 v 0 z m 180.44,88.927 c 3.57,-7.052 -34.916,-36.044 -82.632,-64.272 -48.813,-27.666 -83.994,-43.951 -90.42,-39.095 l -1.428,2.6 c -0.012,0.142 0.052,-0.178 0.354,-0.411 1.168,-1.02 3.105,-0.95 3.979,-0.967 11.065,0.166 42.667,14.71 87.006,40.128 19.428,11.315 82.071,51.491 81.832,62.79 0.017,0.97 0.08,1.17 -0.285,1.651 l 1.594,-2.423 v -0.002 z"
             id="path19" /></g><path
           fill="#ffffff"
           stroke="#000000"
           stroke-width="0.67"
           d="m -96.29599,245.94927 c 0,16.27101 6.663,30.987 17.457,41.742 10.815,10.778 25.512,17.579 41.809,17.579 16.381,0 31.247,-6.653 42.016,-17.389 10.769,-10.735 17.443,-25.552 17.446,-41.88 h -0.002 v -79.189 l -118.74,-0.141 0.012,79.278 z"
           id="path20" /><path
           fill="#ff0000"
           stroke="#000000"
           stroke-width="0.507"
           d="m -94.07599,246.05928 v 0.045 c 0,15.557 6.441,29.724 16.775,40.009 10.354,10.305 24.614,16.712 40.214,16.712 15.681,0 29.912,-6.36 40.222,-16.626 10.308,-10.265 16.697,-24.433 16.699,-40.044 h -0.002 v -76.826 l -113.84,-0.019 -0.07,76.748 m 91.022,-53.747 0.004,48.891 -0.041,5.172 c 0,1.361 -0.081,2.912 -0.24,4.233 -0.925,7.73 -4.48,14.467 -9.745,19.708 -6.164,6.136 -14.671,9.942 -24.047,9.942 -9.327,0 -17.64,-3.938 -23.83,-10.1 -6.349,-6.32 -10.03,-14.986 -10.03,-23.947 l -0.012,-54.023 67.94,0.122 0.002,0.002 z"
           id="path21" /><g
           id="e"
           transform="translate(-276.89599,34.939275)"><g
             id="d"
             fill="#ffff00"
             stroke="#000000"
             stroke-width="0.5"><path
               stroke="none"
               d="m 190.19,154.43 c 0.135,-5.521 4.052,-6.828 4.08,-6.847 0.029,-0.019 4.232,1.407 4.218,6.898 l -8.298,-0.051"
               id="path22" /><path
               d="m 186.81,147.69 -0.682,6.345 4.14,0.009 c 0.04,-5.25 3.975,-6.123 4.07,-6.103 0.09,-0.005 3.989,1.16 4.093,6.103 h 4.151 l -0.75,-6.394 -15.022,0.038 z m -0.96,6.37 h 16.946 c 0.357,0 0.65,0.353 0.65,0.784 0,0.43 -0.293,0.781 -0.65,0.781 H 185.85 c -0.357,0 -0.65,-0.35 -0.65,-0.781 0,-0.431 0.293,-0.784 0.65,-0.784 z"
               id="path23" /><path
               d="m 192.01,154.03 c 0.018,-3.313 2.262,-4.25 2.274,-4.248 0,0 2.342,0.966 2.36,4.248 h -4.634 m -5.8,-8.98 h 16.245 c 0.342,0 0.623,0.318 0.623,0.705 0,0.387 -0.28,0.704 -0.623,0.704 H 186.21 c -0.342,0 -0.623,-0.315 -0.623,-0.704 0,-0.387 0.28,-0.705 0.623,-0.705 z m 0.34,1.42 h 15.538 c 0.327,0 0.595,0.317 0.595,0.704 0,0.388 -0.268,0.704 -0.595,0.704 H 186.55 c -0.327,0 -0.595,-0.316 -0.595,-0.704 0,-0.387 0.268,-0.704 0.595,-0.704 z m 5.02,-10.59 1.227,0.002 v 0.871 h 0.895 v -0.89 l 1.257,0.004 v 0.887 h 0.897 v -0.89 h 1.258 l -0.002,2.01 c 0,0.317 -0.254,0.521 -0.549,0.521 h -4.41 c -0.297,0 -0.57,-0.237 -0.572,-0.526 l -0.003,-1.988 h 10e-4 z m 4.62,2.69 0.277,6.451 -4.303,-0.015 0.285,-6.453 3.741,0.017"
               id="path24" /><path
               id="a"
               d="m 190.94,141.56 0.131,3.478 -4.125,10e-4 0.116,-3.479 h 3.879 z" /><use
               xlink:href="#a"
               x="10.609"
               id="use24" /><path
               id="b"
               d="m 186.3,139.04 1.2,0.003 v 0.872 h 0.877 v -0.892 l 1.23,0.004 v 0.889 h 0.879 v -0.893 l 1.23,0.002 -0.002,2.012 c 0,0.314 -0.249,0.518 -0.536,0.518 h -4.317 c -0.29,0 -0.559,-0.235 -0.56,-0.525 l -0.002,-1.989 z" /><use
               xlink:href="#b"
               x="10.609"
               id="use25" /><path
               fill="#000000"
               stroke="none"
               d="m 193.9,140.61 c -0.026,-0.627 0.877,-0.634 0.866,0 v 1.536 H 193.9 v -1.536"
               id="path25" /><path
               id="c"
               fill="#000000"
               stroke="none"
               d="m 188.57,142.84 c -0.003,-0.606 0.837,-0.618 0.826,0 v 1.187 h -0.826 v -1.187" /><use
               xlink:href="#c"
               x="10.641"
               id="use26" /></g><use
             xlink:href="#d"
             y="46.32"
             id="use27" /><use
             xlink:href="#d"
             transform="rotate(-45.202,312.766,180.004)"
             id="use28" /></g><use
           xlink:href="#d"
           x="45.714001"
           id="use29"
           transform="translate(-276.89599,34.939275)" /><use
           xlink:href="#e"
           transform="matrix(-1,0,0,1,-73.99998,0)"
           id="use30"
           x="0"
           y="0" /><g
           id="f"
           fill="#ffffff"
           transform="translate(-276.89599,34.939275)"><path
             fill="#003399"
             d="m 232.636,202.406 v 0.005 c 0,2.212 0.85,4.227 2.212,5.69 1.365,1.466 3.245,2.377 5.302,2.377 2.067,0 3.944,-0.905 5.303,-2.365 1.358,-1.459 2.202,-3.472 2.202,-5.693 v -10.768 l -14.992,-0.013 -0.028,10.766"
             id="path30" /><circle
             cx="236.07401"
             cy="195.735"
             r="1.4859999"
             id="circle30" /><circle
             cx="244.392"
             cy="195.742"
             r="1.4859999"
             id="circle31" /><circle
             cx="240.22501"
             cy="199.735"
             r="1.4859999"
             id="circle32" /><circle
             cx="236.07401"
             cy="203.916"
             r="1.4859999"
             id="circle33" /><circle
             cx="244.383"
             cy="203.905"
             r="1.4859999"
             id="circle34" /></g><use
           xlink:href="#f"
           y="0"
           id="use34"
           transform="translate(0,-26.016001)"
           x="0" /><use
           xlink:href="#f"
           x="0"
           id="use35"
           transform="translate(-20.799)"
           y="0" /><use
           xlink:href="#f"
           x="0"
           id="use36"
           transform="translate(20.745)"
           y="0" /><use
           xlink:href="#f"
           y="0"
           id="use37"
           transform="translate(0,25.784)"
           x="0" /></g></g></g></svg>
